<svg width="494" height="90" viewBox="0 0 494 90" fill="none" xmlns="http://www.w3.org/2000/svg">
<path d="M147.081 49.3017V73.6422H135.879V17.1421H147.081V35.6575C149.776 32.457 154.324 31.1094 158.283 31.1094C168.811 31.1094 173.696 38.4369 173.696 47.533V73.6422H162.494V49.4701C162.494 44.8378 160.22 41.2162 154.829 41.2162C150.113 41.2162 147.334 44.7536 147.081 49.3017Z" fill="black"/>
<path fill-rule="evenodd" clip-rule="evenodd" d="M114.856 54.3689H104.16V73.6422H92.5371V17.1422H114.856C126.648 17.1422 134.48 24.9749 134.48 35.7555C134.48 46.6203 126.648 54.3689 114.856 54.3689ZM104.244 44.3463H113.424C119.236 44.3463 122.773 40.9774 122.773 35.8397C122.773 30.5337 119.236 27.249 113.424 27.249H104.244V44.3463Z" fill="black"/>
<path d="M178.748 73.6422H189.949V32.2043H178.748V73.6422Z" fill="black"/>
<path d="M206.827 73.6422H195.625V17.1421H206.827V73.6422Z" fill="black"/>
<path fill-rule="evenodd" clip-rule="evenodd" d="M222.11 49.807C215.204 50.8177 209.729 54.9446 209.729 62.3563C209.729 68.8415 215.12 74.8213 223.963 74.8213C230.111 74.8213 234.07 71.9577 236.175 68.673C236.175 70.2733 236.344 72.5473 236.597 73.6422H246.872C246.619 72.2104 246.366 69.2626 246.366 67.0728V46.6907C246.366 38.3526 241.481 30.941 228.343 30.941C217.225 30.941 211.245 38.1 210.572 44.5852L220.51 46.6907C220.847 43.0691 223.542 39.9529 228.427 39.9529C233.143 39.9529 235.417 42.3953 235.417 45.3432C235.417 46.775 234.659 47.9541 232.301 48.291L222.11 49.807ZM235.417 56.8818C235.417 64.2092 231.038 66.4832 226.321 66.4832C222.7 66.4832 220.931 64.125 220.931 61.6825C220.931 58.482 223.205 56.8818 226.069 56.4606L235.417 55.0288V56.8818Z" fill="black"/>
<path fill-rule="evenodd" clip-rule="evenodd" d="M290.677 17.1421V66.1463C290.677 68.9257 290.846 71.9577 291.014 73.6422H280.318C280.149 72.8 279.897 70.7786 279.897 68.8415C278.044 72.1262 273.832 74.6529 268.274 74.6529C256.482 74.6529 248.06 65.3883 248.06 52.839C248.06 40.7109 256.23 31.1937 267.937 31.1937C275.096 31.1937 278.465 34.1415 279.644 36.3313V17.1421H290.677ZM259.346 52.839C259.346 60.2507 263.726 64.6303 269.621 64.6303C275.348 64.6303 279.812 60.2507 279.812 52.7548C279.812 45.3432 275.348 41.2162 269.621 41.2162C263.894 41.2162 259.346 45.4274 259.346 52.839Z" fill="black"/>
<path fill-rule="evenodd" clip-rule="evenodd" d="M333.655 61.7667L324.306 58.9873C322.958 62.6932 320.095 65.3041 314.873 65.3041C309.314 65.3041 304.682 61.3456 304.429 55.8711H334.076C334.076 55.8298 334.086 55.6976 334.101 55.4979C334.148 54.8823 334.244 53.626 334.244 52.4179C334.244 39.1106 326.58 30.941 313.778 30.941C303.166 30.941 293.396 39.5318 293.396 52.7548C293.396 66.7359 303.419 74.9055 314.789 74.9055C324.98 74.9055 331.549 68.9257 333.655 61.7667ZM323.211 48.2068H304.682C304.935 44.4167 308.135 40.0371 313.946 40.0371C320.347 40.0371 323.043 44.0798 323.211 48.2068Z" fill="black"/>
<path d="M347.95 73.6422H336.749V17.1421H347.95V73.6422Z" fill="black"/>
<path fill-rule="evenodd" clip-rule="evenodd" d="M353.626 89.6446H364.828V69.5995C366.849 72.3788 371.06 74.6529 376.788 74.6529C388.495 74.6529 396.327 65.3883 396.327 52.839C396.327 40.5424 389.337 31.2779 377.209 31.2779C370.976 31.2779 366.344 34.0572 364.491 37.2577V32.2043H353.626V89.6446ZM375.019 41.3004C380.746 41.3004 385.294 45.5958 385.294 52.9233C385.294 60.3349 380.746 64.6303 375.019 64.6303C369.292 64.6303 364.659 60.2507 364.659 52.9233C364.659 45.5958 369.292 41.3004 375.019 41.3004Z" fill="black"/>
<path d="M410.081 49.3017V73.6422H398.88V17.1421H410.081V35.6575C412.777 32.457 417.325 31.1094 421.283 31.1094C431.811 31.1094 436.696 38.4369 436.696 47.533V73.6422H425.494V49.4701C425.494 44.8378 423.22 41.2162 417.83 41.2162C413.113 41.2162 410.334 44.7536 410.081 49.3017Z" fill="black"/>
<path d="M441.748 73.6422H452.95V32.2043H441.748V73.6422Z" fill="black"/>
<path fill-rule="evenodd" clip-rule="evenodd" d="M456.099 62.3563C456.099 54.9446 461.573 50.8177 468.48 49.807L478.671 48.291C481.029 47.9541 481.787 46.775 481.787 45.3432C481.787 42.3953 479.513 39.9529 474.797 39.9529C469.912 39.9529 467.216 43.0691 466.88 46.6907L456.941 44.5852C457.615 38.1 463.595 30.941 474.712 30.941C487.851 30.941 492.736 38.3526 492.736 46.6907V67.0728C492.736 69.2626 492.989 72.2104 493.241 73.6422H482.966C482.714 72.5473 482.545 70.2733 482.545 68.673C480.439 71.9577 476.481 74.8213 470.333 74.8213C461.489 74.8213 456.099 68.8415 456.099 62.3563ZM472.691 66.4832C477.407 66.4832 481.787 64.2092 481.787 56.8818V55.0288L472.438 56.4606C469.575 56.8818 467.301 58.482 467.301 61.6825C467.301 64.125 469.069 66.4832 472.691 66.4832Z" fill="black"/>
<path d="M189.95 26.9923C189.95 28.1758 188.99 29.1352 187.807 29.1352H180.891C179.707 29.1352 178.748 28.1758 178.748 26.9923V20.0709C178.748 18.8875 179.707 17.9281 180.891 17.9281H187.807C188.99 17.9281 189.95 18.8875 189.95 20.0709V26.9923Z" fill="black"/>
<path d="M450.487 29.1352C451.671 29.1352 452.63 28.1758 452.63 26.9923V20.0709C452.63 18.8875 451.671 17.9281 450.487 17.9281H443.571C442.388 17.9281 441.428 18.8875 441.428 20.0709V26.9923C441.428 28.1758 442.388 29.1352 443.571 29.1352H450.487Z" fill="black"/>
<path fill-rule="evenodd" clip-rule="evenodd" d="M4.2857 0C1.91894 0 0 1.91881 0 4.2857V25.7142C0 28.0811 1.91894 29.9999 4.2857 29.9999H25.7142C28.081 29.9999 29.9999 31.9187 29.9999 34.2856V56.1638C29.9999 58.2823 31.7169 59.9998 33.8357 59.9998H44.9999C61.5682 59.9998 74.9998 46.5684 74.9998 29.9999C74.9998 13.4314 61.5682 0 44.9999 0H4.2857ZM4.28571 60C1.91879 60 1.44208e-05 61.9188 1.44208e-05 64.2857V85.7142C1.44208e-05 88.0811 1.91879 89.9999 4.28571 89.9999H25.7142C28.0811 89.9999 29.9999 88.0811 29.9999 85.7142V64.2857C29.9999 61.9188 28.0811 60 25.7142 60H4.28571Z" fill="url(#paint0_linear_1113_1753)"/>
<defs>
<linearGradient id="paint0_linear_1113_1753" x1="-1.07141" y1="96.4286" x2="32.3205" y2="35.1686" gradientUnits="userSpaceOnUse">
<stop stop-color="#1AB4D7"/>
<stop offset="1" stop-color="#FF9084"/>
</linearGradient>
</defs>
</svg>
